PathFileType	4	(X/Y/Z)	/Users/niels/Desktop/University/Third Semester/Perception and Action/Exam/Gymnastics Motion Tracking/Code for Gym Tracking/Analyzed Data/Webcam_Backflip/id1_3_baseline_Sports2D/id1_3_baseline_Sports2D_px_person00.trc
DataRate	CameraRate	NumFrames	NumMarkers	Units	OrigDataRate	OrigDataStartFrame	OrigNumFrames
29.87551867219917	29.87551867219917	9	22	m	29.87551867219917	210	241
Frame#	Time	Hip			RHip			RKnee			RAnkle			RBigToe			RSmallToe			RHeel			LHip			LKnee			LAnkle			LBigToe			LSmallToe			LHeel			Neck			Head			Nose			RShoulder			RElbow			RWrist			LShoulder			LElbow			LWrist		
		X1	Y1	Z1	X2	Y2	Z2	X3	Y3	Z3	X4	Y4	Z4	X5	Y5	Z5	X6	Y6	Z6	X7	Y7	Z7	X8	Y8	Z8	X9	Y9	Z9	X10	Y10	Z10	X11	Y11	Z11	X12	Y12	Z12	X13	Y13	Z13	X14	Y14	Z14	X15	Y15	Z15	X16	Y16	Z16	X17	Y17	Z17	X18	Y18	Z18	X19	Y19	Z19	X20	Y20	Z20	X21	Y21	Z21	X22	Y22	Z22
210	7.029166666666667	0.9284568932109482	-0.6010242702581865	0.0	0.918720582377801	-0.5961196313160271	0.0	0.9180254859303042	-0.7012334588869447	0.0	0.9019998151228233	-0.8127386389305048	0.0	0.9477602329973905	-0.8344589233834105	0.0	0.9380922135073083	-0.8369027378823255	0.0	0.8940481887365258	-0.8297154137486935	0.0	0.938267188035151	-0.5978958014078235	0.0	0.9227734747797606	-0.7014665311205488	0.0	0.9048964980828382	-0.810070562428395	0.0	0.9489135823754284	-0.8328525583955978	0.0	0.9468483203211319	-0.8301321979708085	0.0	0.8913693833429404	-0.8257420824926758	0.0	0.9336534542146668	-0.43091210911842326	0.0	0.9591069702193487	-0.3649368430281635	0.0	0.9586560046389401	-0.40842077971534685	0.0	0.8993836313480356	-0.45314385470863305	0.0	0.878233415158207	-0.5285907496479009	0.0	0.8969749189847542	-0.595487032055886	0.0	0.9441220063511597	-0.459019635440924	0.0	0.9405433866722773	-0.5337233570498895	0.0	0.9583818918162051	-0.600239343078017	0.0
211	7.062638888888889	0.9284217593859792	-0.6007303215964167	0.0	0.9179916455032081	-0.59534299148273	0.0	0.9176162984229707	-0.7005795816580537	0.0	0.901566697724702	-0.8123635653898614	0.0	0.9475291634811199	-0.8336911447946784	0.0	0.9377787151341108	-0.8361249250180296	0.0	0.8940550636835105	-0.8293347363542168	0.0	0.9386339237748071	-0.5973282200024599	0.0	0.9226636292353124	-0.7010392405608248	0.0	0.9044799287218113	-0.8096809302157296	0.0	0.9487763981534012	-0.8323210341975231	0.0	0.9467557434747674	-0.8296763712564306	0.0	0.8913097164120666	-0.8254793487205341	0.0	0.9334742174150359	-0.4304637557393521	0.0	0.9569191870104182	-0.3638687322345631	0.0	0.9565086257556906	-0.40681625266456045	0.0	0.8977961466783467	-0.45291857508369354	0.0	0.8771541593113649	-0.5281376415281215	0.0	0.896397562892404	-0.5942003082348261	0.0	0.9464422862283303	-0.4590160777496037	0.0	0.9419098824481124	-0.5335339682156665	0.0	0.9576839781162237	-0.6011335552925524	0.0
212	7.096111111111111	0.9284161010696	-0.6005005027218676	0.0	0.9172768087239839	-0.5947613512500176	0.0	0.9171709801487511	-0.7001080969886343	0.0	0.9010970578461741	-0.8120164519170191	0.0	0.9474353868879324	-0.8330541641245442	0.0	0.9375407222154724	-0.8354550488240863	0.0	0.8939883173294748	-0.8289633289548477	0.0	0.9390367511614416	-0.5969136468444617	0.0	0.9225991584431369	-0.700802285844142	0.0	0.904087284669032	-0.8093856853748039	0.0	0.948590681654361	-0.8318287496173744	0.0	0.9466761882879042	-0.8292458661022718	0.0	0.8912789728510487	-0.8252425065933725	0.0	0.9333216759885037	-0.43028103769261145	0.0	0.9548372146454519	-0.36309294903559375	0.0	0.9546609647155497	-0.40555647391086613	0.0	0.8962242804292158	-0.4530016920614899	0.0	0.8761574650182269	-0.5279770226115862	0.0	0.895709073098945	-0.5933188249626411	0.0	0.9487286925269359	-0.4592369819205961	0.0	0.9431677028960704	-0.5335187125334092	0.0	0.9571663389094177	-0.6019313478090357	0.0
213	7.129583333333334	0.9284099778285333	-0.6002786175689695	0.0	0.9165912639284232	-0.5943856570942715	0.0	0.9166767004562845	-0.6998972106932014	0.0	0.9006542141066883	-0.8117926573276097	0.0	0.9473312735006687	-0.8326267504619831	0.0	0.9372944450521377	-0.8349640865505987	0.0	0.8939129979880454	-0.8287108080896561	0.0	0.9393977385871678	-0.5967090535769846	0.0	0.9225398281393348	-0.7007708887323856	0.0	0.9037452885404114	-0.8092466104895633	0.0	0.9483500650983802	-0.8314824328184742	0.0	0.9465488071798462	-0.828894141242947	0.0	0.8912887956488418	-0.8250907158572643	0.0	0.9332054727956537	-0.4303300411838424	0.0	0.9529182327081996	-0.3626579168508554	0.0	0.9530383542805904	-0.40467567125529263	0.0	0.8947917473124629	-0.45333404498967084	0.0	0.8752406848109636	-0.528051309261448	0.0	0.8948737504296983	-0.592930772064854	0.0	0.950786071762505	-0.45961019630620137	0.0	0.9442766032704669	-0.5337002955843707	0.0	0.9569992847196285	-0.6026309246802539	0.0
214	7.163055555555555	0.928374865113449	-0.6000410070857208	0.0	0.9159368974425894	-0.5941989504736205	0.0	0.9161325953957252	-0.6999957564448015	0.0	0.90028336030019	-0.8117516522601441	0.0	0.947083033818774	-0.832447452214071	0.0	0.9369651997989438	-0.8346895697837299	0.0	0.8938636699664907	-0.8286549850790274	0.0	0.9396405340891821	-0.5967112606049398	0.0	0.9224034708953908	-0.7009596309979926	0.0	0.9034536734131156	-0.809309580613489	0.0	0.9480768875264021	-0.8313701612476775	0.0	0.9463174855066241	-0.8286763621016746	0.0	0.8913394456532122	-0.8250952371414527	0.0	0.9331232575524976	-0.43056600824437014	0.0	0.9511975277909704	-0.36256639109729294	0.0	0.9515695531449827	-0.40417787598813687	0.0	0.8935998239896777	-0.45383080181945873	0.0	0.8744219882517903	-0.52829451678033	0.0	0.8938818214170899	-0.5930325835096104	0.0	0.9525156884469583	-0.4600288190358217	0.0	0.9452930328502214	-0.5340547703556574	0.0	0.9573298946928889	-0.6032334959768006	0.0
215	7.196527777777778	0.9282779248583424	-0.5998215771080866	0.0	0.91531399916589	-0.5941982230808908	0.0	0.9155814828486735	-0.7003894734481833	0.0	0.9000133551060375	-0.8119065443716359	0.0	0.9466730032261246	-0.8325020668611918	0.0	0.936562274336856	-0.8346327974536071	0.0	0.8938401879271195	-0.828823961398661	0.0	0.939724298098448	-0.5968924486718552	0.0	0.9220915569440657	-0.7013733001639295	0.0	0.903198242901396	-0.8095954933819607	0.0	0.9478002240634982	-0.8315173448489571	0.0	0.9459771771612445	-0.8286243875958217	0.0	0.8913921308460265	-0.8253204561472544	0.0	0.9330689552655357	-0.4309541487518037	0.0	0.949690121287497	-0.36277280772437875	0.0	0.9501989940448646	-0.40403237676778375	0.0	0.8927012658325989	-0.45440834914303835	0.0	0.873723954210423	-0.5286551162673688	0.0	0.8927352971228505	-0.5935454824139128	0.0	0.9539534971880855	-0.46040884478318145	0.0	0.9463114248023282	-0.534507878600452	0.0	0.9582439336363242	-0.6036962208135607	0.0
216	7.23	0.9280726866838375	-0.5996864952916603	0.0	0.9147132836157835	-0.5943774994363056	0.0	0.9151052887623294	-0.7009872293412721	0.0	0.8998515245816079	-0.8122442462695558	0.0	0.9462374519230875	-0.8327412606333583	0.0	0.9362166389078488	-0.8347782579835352	0.0	0.8938291248675183	-0.8292153272523322	0.0	0.9396645901348345	-0.5972049919257566	0.0	0.9215442338028704	-0.7019755252484298	0.0	0.902961774100775	-0.8101017354386043	0.0	0.9475537471145059	-0.8318891929894596	0.0	0.9456076180480504	-0.828754298287556	0.0	0.8913898334390056	-0.8258032843290334	0.0	0.9330287487458158	-0.4314426813941497	0.0	0.9484047790022865	-0.36321045064922314	0.0	0.948902493561261	-0.4041724719168403	0.0	0.8920786844366171	-0.45497924203674167	0.0	0.8731447336200964	-0.5290696581676586	0.0	0.8914356173674941	-0.5943607670678008	0.0	0.9552205784191722	-0.46071042267867857	0.0	0.9474158717157111	-0.5349567517284338	0.0	0.9597442029024569	-0.6039515434647061	0.0
217	7.263472222222222	0.9277104011755801	-0.5996873117582897	0.0	0.9141105602718238	-0.5947153124214203	0.0	0.9147724122810524	-0.7016643700820118	0.0	0.8997813760697602	-0.8127224018356598	0.0	0.9459704706975223	-0.8331113543201518	0.0	0.9360975084050912	-0.8351011345500469	0.0	0.8938131422624105	-0.8297893798068195	0.0	0.939507200746179	-0.5975936856578905	0.0	0.920804195160196	-0.7026838563014243	0.0	0.9027212652724682	-0.810775118149827	0.0	0.9473582033453888	-0.8324171927576688	0.0	0.9453231037868765	-0.8290703705347129	0.0	0.8913103342647841	-0.8265197502700264	0.0	0.9329819519161571	-0.4319550149190282	0.0	0.9473595325100607	-0.3638048492369007	0.0	0.9476948448105715	-0.404530342411076	0.0	0.8916490099844068	-0.4554802460492062	0.0	0.8726527007712832	-0.5294592048559028	0.0	0.8899770223689184	-0.5953654870145783	0.0	0.9564215080516271	-0.4609299322615626	0.0	0.9486691489079304	-0.5353066064218643	0.0	0.9617782150287965	-0.6039512495130956	0.0
218	7.296944444444445	0.9271762585391927	-0.5998389176818153	0.0	0.9134787107900834	-0.5951972490246975	0.0	0.914592925058877	-0.702330347081377	0.0	0.8997776297824617	-0.8132722516967091	0.0	0.945964987417926	-0.8335604331732129	0.0	0.936280484944325	-0.835547327123466	0.0	0.8937733620767581	-0.8304607361771233	0.0	0.939289364776383	-0.5980373934620579	0.0	0.9200260287823362	-0.7034061691143954	0.0	0.9024630711250908	-0.8114994461992584	0.0	0.9472037574475034	-0.8330230842558924	0.0	0.9451887087447696	-0.8295458305085356	0.0	0.8911809920262095	-0.8273726781059699	0.0	0.9329184543980896	-0.43241746116946667	0.0	0.9465613709628075	-0.3644633533318624	0.0	0.9465984619502686	-0.40504819175365436	0.0	0.8913131670801123	-0.4558954881776448	0.0	0.8721991199670601	-0.5297613082466681	0.0	0.888362740538327	-0.5964405503044059	0.0	0.9575643565225237	-0.4610850658186499	0.0	0.9500924004789661	-0.5355108104946874	0.0	0.9642766705056183	-0.6036637897214845	0.0
